<?xml version="1.0" encoding="UTF-8" standalone="no"?>
<!-- Created with Inkscape (http://www.inkscape.org/) -->

<svg
   xmlns:dc="http://purl.org/dc/elements/1.1/"
   xmlns:cc="http://creativecommons.org/ns#"
   xmlns:rdf="http://www.w3.org/1999/02/22-rdf-syntax-ns#"
   xmlns:svg="http://www.w3.org/2000/svg"
   xmlns="http://www.w3.org/2000/svg"
   xmlns:sodipodi="http://sodipodi.sourceforge.net/DTD/sodipodi-0.dtd"
   xmlns:inkscape="http://www.inkscape.org/namespaces/inkscape"
   width="423.52231"
   height="335.66299"
   id="svg2"
   version="1.1"
   inkscape:version="0.48.4 r9939"
   sodipodi:docname="TRAKTOR.svg">
  <defs
     id="defs4" />
  <sodipodi:namedview
     id="base"
     pagecolor="#ffffff"
     bordercolor="#666666"
     borderopacity="1.0"
     inkscape:pageopacity="0.0"
     inkscape:pageshadow="2"
     inkscape:zoom="1.33"
     inkscape:cx="165.11005"
     inkscape:cy="252.67854"
     inkscape:document-units="px"
     inkscape:current-layer="layer1"
     showgrid="false"
     inkscape:snap-global="true"
     inkscape:window-width="1705"
     inkscape:window-height="1516"
     inkscape:window-x="2029"
     inkscape:window-y="70"
     inkscape:window-maximized="0"
     fit-margin-top="0"
     fit-margin-left="0"
     fit-margin-right="0"
     fit-margin-bottom="0" />
  <metadata
     id="metadata7">
    <rdf:RDF>
      <cc:Work
         rdf:about="">
        <dc:format>image/svg+xml</dc:format>
        <dc:type
           rdf:resource="http://purl.org/dc/dcmitype/StillImage" />
        <dc:title></dc:title>
      </cc:Work>
    </rdf:RDF>
  </metadata>
  <g
     inkscape:label="Ebene 1"
     inkscape:groupmode="layer"
     id="layer1"
     transform="translate(-153.18381,-243.78125)">
    <rect
       style="fill:#666666;stroke:#000000;stroke-width:4;stroke-miterlimit:4;stroke-opacity:1;stroke-dasharray:none"
       id="rect3020"
       width="10.526316"
       height="76.691727"
       x="237.39589"
       y="245.79333"
       ry="3.1899555" />
    <path
       style="fill:none;stroke:#000000;stroke-width:4;stroke-linecap:round;stroke-linejoin:round;stroke-miterlimit:4;stroke-opacity:1;stroke-dasharray:none"
       d="m 334.94532,345.2554 34.02619,-15.41812"
       id="path5329"
       inkscape:connector-curvature="0" />
    <rect
       style="fill:#666666;fill-opacity:1;stroke:#000000;stroke-width:3.82019186;stroke-miterlimit:4;stroke-opacity:1;stroke-dasharray:none"
       id="rect5323"
       width="89.995041"
       height="27.381016"
       x="73.30574"
       y="442.14743"
       transform="matrix(0.90476284,-0.42591572,0.42591572,0.90476284,0,0)"
       ry="6.423491" />
    <path
       style="opacity:0.10650886;fill:#000000;fill-opacity:1;stroke:#000000;stroke-width:4;stroke-linecap:round;stroke-linejoin:round;stroke-miterlimit:4;stroke-opacity:1;stroke-dasharray:none"
       d="m 244.5625,245.78125 0,76.71875 0.15625,0 c 1.76724,0 3.21875,-1.45151 3.21875,-3.21875 l 0,-70.3125 c 0,-1.76724 -1.45151,-3.1875 -3.21875,-3.1875 l -0.15625,0 z"
       id="rect5366"
       inkscape:connector-curvature="0" />
    <rect
       style="fill:#666666;stroke:#000000;stroke-width:4;stroke-miterlimit:4;stroke-opacity:1;stroke-dasharray:none"
       id="rect3018"
       width="18.796993"
       height="40.601505"
       x="233.41626"
       y="318.89246"
       ry="4.253274" />
    <path
       style="opacity:0.10650886;fill:#000000;fill-opacity:1;stroke:#000000;stroke-width:4;stroke-linecap:round;stroke-linejoin:round;stroke-miterlimit:4;stroke-opacity:1;stroke-dasharray:none"
       d="m 242.96875,318.90625 0,40.59375 5,0 c 2.35631,0 4.25,-1.89369 4.25,-4.25 l 0,-32.09375 c 0,-2.35631 -1.89369,-4.25 -4.25,-4.25 l -5,0 z"
       id="rect5358"
       inkscape:connector-curvature="0" />
    <path
       style="fill:#800000;stroke:#000000;stroke-width:30.60000038;stroke-miterlimit:4;stroke-opacity:0.45954692;stroke-dasharray:none"
       d="m 175.93986,377.17422 c 23.00156,-47.17372 203.25814,-2.25564 303.75939,-2.25564 30.5884,96.19667 3.36549,85.89883 0,119.54887 -27.31892,-5.86087 -75.30624,1.13244 -111.29819,-3.53909 -16.22078,-2.10535 -42.15921,-2.21182 -58.67084,0.63717 -44.50295,7.67872 -82.66324,-0.10526 -131.53472,2.90192 -0.84586,-30.96805 -19.87782,-80.00469 -2.25564,-117.29323 z"
       id="rect3012"
       inkscape:connector-curvature="0"
       sodipodi:nodetypes="cccsscc" />
    <path
       style="fill:#ffffff;fill-opacity:1;stroke:none"
       d="m 289.4199,383.39976 c -51.3817,0.25655 -81.84202,3.75633 -104.73379,17.02256 -0.83184,5.75711 -1.08652,11.39879 -0.66541,16.90531 79.22153,-32.33323 218.47861,-11.05849 308.4617,6.85338 l -5.25,-21.0625 C 406.62839,389.57794 340.8016,383.14321 289.4199,383.39976 z"
       id="path5309"
       inkscape:connector-curvature="0"
       sodipodi:nodetypes="sccccs" />
    <path
       sodipodi:type="star"
       style="fill:#4d4d4d;stroke:#000000;stroke-opacity:0.45954692"
       id="path3023"
       sodipodi:sides="12"
       sodipodi:cx="491.72931"
       sodipodi:cy="478.67798"
       sodipodi:r1="87.735374"
       sodipodi:r2="97.483749"
       sodipodi:arg1="1.0277313"
       sodipodi:arg2="1.2895307"
       inkscape:flatsided="false"
       inkscape:rounded="0.7"
       inkscape:randomized="0"
       d="m 537.06766,553.79076 c -15.60329,9.4182 -0.77038,13.48148 -18.27961,18.54033 -17.50924,5.05886 -7.12902,-6.28912 -25.35097,-5.93436 -18.22195,0.35476 -7.40791,11.29011 -25.10078,6.91659 -17.69286,-4.37351 -3.02935,-9.01104 -18.98739,-17.81479 -15.95805,-8.80374 -12.0605,6.07357 -25.19621,-6.56044 -13.13571,-12.63401 1.88203,-9.31847 -7.53617,-24.92176 -9.41821,-15.60329 -13.48148,-0.77038 -18.54034,-18.27962 -5.05885,-17.50923 6.28912,-7.12901 5.93437,-25.35096 -0.35476,-18.22195 -11.29011,-7.40791 -6.9166,-25.10078 4.37352,-17.69286 9.01105,-3.02935 17.8148,-18.98739 8.80374,-15.95805 -6.07357,-12.0605 6.56044,-25.19621 12.63401,-13.13571 9.31847,1.88203 24.92176,-7.53617 15.60329,-9.41821 0.77038,-13.48148 18.27961,-18.54034 17.50923,-5.05885 7.12902,6.28912 25.35097,5.93437 18.22195,-0.35476 7.40791,-11.29011 25.10077,-6.9166 17.69287,4.37352 3.02935,9.01105 18.9874,17.8148 15.95805,8.80374 12.06049,-6.07357 25.19621,6.56044 13.13571,12.63401 -1.88203,9.31847 7.53617,24.92176 9.4182,15.60329 13.48148,0.77038 18.54034,18.27961 5.05885,17.50923 -6.28913,7.12902 -5.93437,25.35097 0.35476,18.22195 11.29011,7.40791 6.9166,25.10077 -4.37352,17.69287 -9.01105,3.02935 -17.8148,18.9874 -8.80374,15.95805 6.07357,12.06049 -6.56044,25.19621 -12.63401,13.13571 -9.31847,-1.88203 -24.92176,7.53617 z"
       inkscape:transform-center-x="-2.5650791"
       inkscape:transform-center-y="-6.8355257"
       transform="translate(-11.18942,4.6000269)" />
    <path
       style="fill:none;stroke:#000000;stroke-width:4;stroke-linecap:round;stroke-linejoin:miter;stroke-miterlimit:4;stroke-opacity:1;stroke-dasharray:none"
       d="m 374.2881,338.34383 -10.63318,-20.73471 0,0"
       id="path5331"
       inkscape:connector-curvature="0" />
    <path
       sodipodi:type="arc"
       style="fill:#ffffff;fill-opacity:1;stroke:#000000;stroke-width:4;stroke-linecap:round;stroke-linejoin:round;stroke-miterlimit:4;stroke-opacity:1;stroke-dasharray:none"
       id="path5333"
       sodipodi:cx="222.49939"
       sodipodi:cy="401.34546"
       sodipodi:rx="31.954887"
       sodipodi:ry="30.451128"
       d="m 254.45428,401.34546 c 0,16.81769 -14.30669,30.45113 -31.95489,30.45113 -17.6482,0 -31.95489,-13.63344 -31.95489,-30.45113 0,-16.81769 14.30669,-30.45113 31.95489,-30.45113 17.6482,0 31.95489,13.63344 31.95489,30.45113 z"
       transform="translate(-7.4432292,-3.1899554)" />
    <path
       sodipodi:type="arc"
       style="fill:#000000;fill-opacity:1;stroke:#000000;stroke-width:4;stroke-linecap:round;stroke-linejoin:round;stroke-miterlimit:4;stroke-opacity:1;stroke-dasharray:none"
       id="path5335"
       sodipodi:cx="207.08127"
       sodipodi:cy="411.97864"
       sodipodi:rx="7.1428571"
       sodipodi:ry="7.1428571"
       d="m 214.22413,411.97864 c 0,3.94489 -3.19797,7.14285 -7.14286,7.14285 -3.94489,0 -7.14286,-3.19796 -7.14286,-7.14285 0,-3.94489 3.19797,-7.14286 7.14286,-7.14286 3.94489,0 7.14286,3.19797 7.14286,7.14286 z"
       transform="translate(-7.9748885,-18.076414)" />
    <path
       style="fill:none;stroke:#000000;stroke-width:4;stroke-linecap:butt;stroke-linejoin:miter;stroke-miterlimit:4;stroke-opacity:1;stroke-dasharray:none"
       d="m 186.61239,445.73901 c 18.42728,-4.95077 53.06375,-4.11255 53.69759,-15.41812"
       id="path5337"
       inkscape:connector-curvature="0"
       sodipodi:nodetypes="cc" />
    <path
       style="fill:#916f6f;fill-opacity:1;stroke:#000000;stroke-width:4;stroke-linecap:round;stroke-linejoin:round;stroke-miterlimit:4;stroke-opacity:1;stroke-dasharray:none"
       d="m 246.8125,394.65625 -60.875,16 c 5.01044,10.57369 16.15933,17.9375 29.125,17.9375 17.6482,0 31.9375,-13.61981 31.9375,-30.4375 0,-1.18182 -0.05,-2.35325 -0.1875,-3.5 z"
       id="path5351"
       inkscape:connector-curvature="0" />
    <path
       style="opacity:0.08875738;fill:#000000;fill-opacity:1;stroke:#000000;stroke-width:4;stroke-linecap:round;stroke-linejoin:round;stroke-miterlimit:4;stroke-opacity:1;stroke-dasharray:none"
       d="m 229.875,371.1875 c 2.5802,4.97579 4.0625,10.60171 4.0625,16.59375 0,19.8715 -16.03964,36.00299 -35.875,36.15625 4.92404,2.95432 10.75152,4.65625 17,4.65625 17.6482,0 31.9375,-13.61981 31.9375,-30.4375 0,-11.71649 -6.945,-21.87653 -17.125,-26.96875 z"
       id="path5412"
       inkscape:connector-curvature="0" />
    <path
       style="opacity:0.0739645;fill:#000000;fill-opacity:1;stroke:none"
       d="m 377.78125,366.90625 c -24.34438,53.08487 -77.96445,89.96875 -140.1875,89.96875 -24.0163,0 -46.73717,-5.48354 -67,-15.28125 2.73459,19.56615 7.19387,38.2349 7.59375,52.875 48.87148,-3.00718 87.0283,4.77247 131.53125,-2.90625 16.51163,-2.84899 42.46672,-2.73035 58.6875,-0.625 35.99195,4.67153 83.96233,-2.32962 111.28125,3.53125 3.36549,-33.65004 30.5884,-23.36583 0,-119.5625 -29.1718,0 -65.09145,-3.7817 -101.90625,-8 z"
       id="path5439"
       inkscape:connector-curvature="0" />
    <path
       transform="matrix(0.70134259,0,0,0.70134259,-104.18044,173.12466)"
       inkscape:transform-center-y="-6.8355257"
       inkscape:transform-center-x="-2.5650791"
       d="m 537.06766,553.79076 c -25.34801,15.30015 -6.68629,19.15129 -36.16255,21.93816 -29.47625,2.78687 -11.86698,-4.49356 -39.63334,-14.77194 -27.76637,-10.27838 -19.14192,6.71308 -39.69893,-14.5948 -20.557,-21.30787 -3.88573,-12.07966 -13.16181,-40.19675 -9.27608,-28.11708 -17.18329,-10.78021 -13.3412,-40.13757 3.84208,-29.35736 7.02154,-10.56954 23.22082,-35.35259 16.19929,-24.78305 -2.28529,-20.15579 23.06272,-35.45594 25.34801,-15.30015 12.64146,-1.10033 42.11771,-3.8872 29.47626,-2.78687 14.33358,-14.35365 42.09994,-4.07526 27.76636,10.27838 8.7421,9.19744 29.29911,30.50532 20.557,21.30788 20.15896,2.25709 29.43505,30.37418 9.27608,28.11708 -1.74025,12.56936 -5.58233,41.92671 -3.84209,29.35736 10.80424,17.16819 -5.39504,41.95124 -16.19928,24.78305 -10.91215,6.47629 -36.26015,21.77644 z"
       inkscape:randomized="0"
       inkscape:rounded="0.7"
       inkscape:flatsided="false"
       sodipodi:arg2="1.4765303"
       sodipodi:arg1="1.0277313"
       sodipodi:r2="97.483749"
       sodipodi:r1="87.735374"
       sodipodi:cy="478.67798"
       sodipodi:cx="491.72931"
       sodipodi:sides="7"
       id="path3039"
       style="fill:#4d4d4d;stroke:#000000;stroke-opacity:0.45954692"
       sodipodi:type="star" />
    <path
       transform="matrix(0.49198659,0,0,0.49198659,-28.977567,267.42014)"
       d="m 648.87218,490.70804 c 0,55.64372 -45.10815,100.75188 -100.75188,100.75188 -55.64372,0 -100.75188,-45.10816 -100.75188,-100.75188 0,-55.64373 45.10816,-100.75188 100.75188,-100.75188 55.64373,0 100.75188,45.10815 100.75188,100.75188 z"
       sodipodi:ry="100.75188"
       sodipodi:rx="100.75188"
       sodipodi:cy="490.70804"
       sodipodi:cx="548.1203"
       id="path3041"
       style="fill:#ffffff"
       sodipodi:type="arc" />
    <path
       sodipodi:type="arc"
       style="fill:#800000"
       id="path3043"
       sodipodi:cx="548.1203"
       sodipodi:cy="490.70804"
       sodipodi:rx="100.75188"
       sodipodi:ry="100.75188"
       d="m 648.87218,490.70804 c 0,55.64372 -45.10815,100.75188 -100.75188,100.75188 -55.64372,0 -100.75188,-45.10816 -100.75188,-100.75188 0,-55.64373 45.10816,-100.75188 100.75188,-100.75188 55.64373,0 100.75188,45.10815 100.75188,100.75188 z"
       transform="matrix(0.35067129,0,0,0.36637299,48.480221,329.05974)" />
    <path
       transform="matrix(0.23029158,0,0,0.20935599,114.46278,406.10924)"
       d="m 648.87218,490.70804 c 0,55.64372 -45.10815,100.75188 -100.75188,100.75188 -55.64372,0 -100.75188,-45.10816 -100.75188,-100.75188 0,-55.64373 45.10816,-100.75188 100.75188,-100.75188 55.64373,0 100.75188,45.10815 100.75188,100.75188 z"
       sodipodi:ry="100.75188"
       sodipodi:rx="100.75188"
       sodipodi:cy="490.70804"
       sodipodi:cx="548.1203"
       id="path3045"
       style="fill:#800000"
       sodipodi:type="arc" />
    <path
       style="opacity:0.14792899;fill:#000000;fill-opacity:1;stroke:#000000;stroke-width:0.70134258;stroke-opacity:0.45954692"
       d="m 270.40625,447.15625 c 2.74383,2.78426 5.24158,5.81211 7.4375,9.0625 -1.78984,-4.31718 -0.58245,-5.90429 -7.4375,-9.0625 z M 281.25,461.875 c 4.74686,8.90048 7.4375,19.05225 7.4375,29.84375 0,35.08846 -28.44279,63.53125 -63.53125,63.53125 -15.53357,0 -29.74321,-5.58594 -40.78125,-14.84375 -0.37956,5.46641 -2.76681,5.65312 7.125,15.90625 14.41751,14.94412 8.37002,3.04133 27.84375,10.25 19.47373,7.20867 7.1083,12.2983 27.78125,10.34375 20.67295,-1.95455 7.59736,-4.64435 25.375,-15.375 17.77764,-10.73064 14.04501,2.10015 25.40625,-15.28125 11.36125,-17.38141 1.08663,-8.84793 3.78125,-29.4375 2.69462,-20.58956 10.44321,-9.68654 3.9375,-29.40625 -6.50571,-19.71971 -6.23875,-6.33713 -20.65625,-21.28125 -1.5331,-1.5891 -2.7406,-2.98754 -3.71875,-4.25 z"
       id="path5434"
       inkscape:connector-curvature="0" />
    <path
       sodipodi:type="arc"
       style="fill:#ffffff;stroke:#000000;stroke-opacity:0.45954692"
       id="path3016"
       sodipodi:cx="548.1203"
       sodipodi:cy="490.70804"
       sodipodi:rx="100.75188"
       sodipodi:ry="100.75188"
       d="m 648.87218,490.70804 c 0,55.64372 -45.10815,100.75188 -100.75188,100.75188 -55.64372,0 -100.75188,-45.10816 -100.75188,-100.75188 0,-55.64373 45.10816,-100.75188 100.75188,-100.75188 55.64373,0 100.75188,45.10815 100.75188,100.75188 z"
       transform="matrix(0.70149253,0,0,0.70149253,96.037594,139.04998)" />
    <path
       transform="matrix(0.49999999,0,0,0.52238805,206.47975,226.93799)"
       d="m 648.87218,490.70804 c 0,55.64372 -45.10815,100.75188 -100.75188,100.75188 -55.64372,0 -100.75188,-45.10816 -100.75188,-100.75188 0,-55.64373 45.10816,-100.75188 100.75188,-100.75188 55.64373,0 100.75188,45.10815 100.75188,100.75188 z"
       sodipodi:ry="100.75188"
       sodipodi:rx="100.75188"
       sodipodi:cy="490.70804"
       sodipodi:cx="548.1203"
       id="path3027"
       style="fill:#800000;stroke:#000000;stroke-opacity:0.45954692"
       sodipodi:type="arc" />
    <path
       style="opacity:0.12130175;fill:#000000;fill-opacity:1;stroke:none"
       d="m 539.125,407.67622 c -2.48171,0.0991 -4.17612,2.01285 -7.96875,1.71875 11.34951,15.6703 18.0625,34.92212 18.0625,55.75 0,52.55928 -42.62822,95.1875 -95.1875,95.1875 -6.73582,0 -13.31606,-0.7004 -19.65625,-2.03125 1.12416,0.44322 2.37331,1.03577 3.78125,1.8125 15.95805,8.80374 1.30713,13.43898 19,17.8125 17.69287,4.37352 6.8718,-6.58274 25.09375,-6.9375 18.22195,-0.35476 7.83452,10.99636 25.34375,5.9375 17.50923,-5.05886 2.67796,-9.11305 18.28125,-18.53125 15.60329,-9.4182 12.30349,5.60446 24.9375,-7.53125 12.63401,-13.13571 -2.24124,-9.2607 6.5625,-25.21875 8.80374,-15.95805 13.43898,-1.27588 17.8125,-18.96875 4.37352,-17.69287 -6.58274,-6.8718 -6.9375,-25.09375 -0.35476,-18.22195 10.99636,-7.86577 5.9375,-25.375 -5.05886,-17.50923 -9.11305,-2.67796 -18.53125,-18.28125 -9.4182,-15.60329 5.60446,-12.27224 -7.53125,-24.90625 -4.5154,-4.34294 -7.01165,-5.42313 -9,-5.34375 z m -130.28125,141.25 c 0.88124,1.2732 2.20699,2.78025 4.125,4.625 9.9779,9.59681 10.13543,3.30781 16.625,3.59375 -7.30171,-1.93472 -14.24826,-4.70298 -20.75,-8.21875 z"
       id="path5429"
       inkscape:connector-curvature="0" />
  </g>
</svg>
