<?xml version="1.0" encoding="UTF-8" standalone="no"?>
<!-- Created with Inkscape (http://www.inkscape.org/) -->

<svg
   xmlns:dc="http://purl.org/dc/elements/1.1/"
   xmlns:cc="http://creativecommons.org/ns#"
   xmlns:rdf="http://www.w3.org/1999/02/22-rdf-syntax-ns#"
   xmlns:svg="http://www.w3.org/2000/svg"
   xmlns="http://www.w3.org/2000/svg"
   xmlns:sodipodi="http://sodipodi.sourceforge.net/DTD/sodipodi-0.dtd"
   xmlns:inkscape="http://www.inkscape.org/namespaces/inkscape"
   width="450"
   height="335.66299"
   id="svg2"
   version="1.1"
   inkscape:version="0.91 r13725"
   sodipodi:docname="TRAKTOR2.svg"
   inkscape:export-filename="J:\git\love\tractor-game\assets\TRAKTOR2.png"
   inkscape:export-xdpi="40.006199"
   inkscape:export-ydpi="40.006199">
  <defs
     id="defs4" />
  <sodipodi:namedview
     id="base"
     pagecolor="#ffffff"
     bordercolor="#666666"
     borderopacity="1.0"
     inkscape:pageopacity="0.0"
     inkscape:pageshadow="2"
     inkscape:zoom="1.880904"
     inkscape:cx="120.9055"
     inkscape:cy="149.76273"
     inkscape:document-units="px"
     inkscape:current-layer="layer1"
     showgrid="false"
     inkscape:snap-global="true"
     inkscape:window-width="1920"
     inkscape:window-height="1017"
     inkscape:window-x="-8"
     inkscape:window-y="-8"
     inkscape:window-maximized="1"
     fit-margin-top="0"
     fit-margin-left="0"
     fit-margin-right="0"
     fit-margin-bottom="0" />
  <metadata
     id="metadata7">
    <rdf:RDF>
      <cc:Work
         rdf:about="">
        <dc:format>image/svg+xml</dc:format>
        <dc:type
           rdf:resource="http://purl.org/dc/dcmitype/StillImage" />
        <dc:title></dc:title>
      </cc:Work>
    </rdf:RDF>
  </metadata>
  <g
     inkscape:label="Ebene 1"
     inkscape:groupmode="layer"
     id="layer1"
     transform="translate(-153.18381,-243.78125)">
    <rect
       style="fill:#666666;stroke:#000000;stroke-width:4.21741104;stroke-miterlimit:4;stroke-dasharray:none;stroke-opacity:1"
       id="rect3020"
       width="10.560622"
       height="84.978142"
       x="237.88745"
       y="210.16158"
       ry="3.5346248" />
    <path
       style="fill:none;stroke:#000000;stroke-width:4.21741104;stroke-linecap:round;stroke-linejoin:round;stroke-miterlimit:4;stroke-dasharray:none;stroke-opacity:1"
       d="m 335.75481,320.37035 34.13708,-17.08402"
       id="path5329"
       inkscape:connector-curvature="0" />
    <rect
       style="fill:#666666;fill-opacity:1;stroke:#000000;stroke-width:4.03373909;stroke-miterlimit:4;stroke-dasharray:none;stroke-opacity:1"
       id="rect5323"
       width="92.070831"
       height="29.839489"
       x="99.1922"
       y="426.37692"
       transform="matrix(0.88724673,-0.46129517,0.3920983,0.91992333,0,0)"
       ry="7.0002403" />
    <path
       style="opacity:0.10650886;fill:#000000;fill-opacity:1;stroke:#000000;stroke-width:4.21741104;stroke-linecap:round;stroke-linejoin:round;stroke-miterlimit:4;stroke-dasharray:none;stroke-opacity:1"
       d="m 245.07742,210.14818 0,85.00809 0.15676,0 c 1.773,0 3.22924,-1.60835 3.22924,-3.56653 l 0,-77.90965 c 0,-1.95819 -1.45624,-3.53191 -3.22924,-3.53191 l -0.15676,0 z"
       id="rect5366"
       inkscape:connector-curvature="0" />
    <rect
       style="fill:#666666;stroke:#000000;stroke-width:4.21741104;stroke-miterlimit:4;stroke-dasharray:none;stroke-opacity:1"
       id="rect3018"
       width="18.858255"
       height="44.98843"
       x="233.89485"
       y="291.15894"
       ry="4.7128334" />
    <path
       style="opacity:0.10650886;fill:#000000;fill-opacity:1;stroke:#000000;stroke-width:4.21741104;stroke-linecap:round;stroke-linejoin:round;stroke-miterlimit:4;stroke-dasharray:none;stroke-opacity:1"
       d="m 243.47847,291.17422 0,44.97984 5.0163,0 c 2.36399,0 4.26385,-2.0983 4.26385,-4.70921 l 0,-35.56143 c 0,-2.6109 -1.89986,-4.7092 -4.26385,-4.7092 l -5.0163,0 z"
       id="rect5358"
       inkscape:connector-curvature="0" />
    <path
       style="fill:#800000;stroke:#000000;stroke-width:32.26319504;stroke-miterlimit:4;stroke-dasharray:none;stroke-opacity:0.45954692"
       d="m 176.23113,355.73795 c 23.07652,-52.27077 203.92058,-2.49936 304.74938,-2.49936 30.68809,106.59056 3.37646,95.18006 0,132.46593 -27.40796,-6.49413 -75.55167,1.2548 -111.66093,-3.92149 -16.27364,-2.33282 -42.29661,-2.4508 -58.86205,0.70602 -44.64799,8.50839 -82.93265,-0.11663 -131.96341,3.21547 -0.84862,-34.3141 -19.94261,-88.64907 -2.26299,-129.96657 z"
       id="rect3012"
       inkscape:connector-curvature="0"
       sodipodi:nodetypes="cccsscc" />
    <path
       style="fill:#ffffff;fill-opacity:1;stroke:none"
       d="m 290.08101,362.63615 c -51.54916,0.28427 -82.10875,4.16219 -105.07513,18.86182 -0.83455,6.37915 -1.09006,12.63041 -0.66758,18.7319 79.47973,-35.82679 219.19066,-12.25334 309.46702,7.59387 l -5.26711,-23.33826 C 407.6715,369.48187 341.63017,362.35188 290.08101,362.63615 Z"
       id="path5309"
       inkscape:connector-curvature="0"
       sodipodi:nodetypes="sccccs" />
    <path
       sodipodi:type="star"
       style="fill:#4d4d4d;stroke:#000000;stroke-opacity:0.45954692"
       id="path3023"
       sodipodi:sides="12"
       sodipodi:cx="491.72931"
       sodipodi:cy="478.67798"
       sodipodi:r1="87.735374"
       sodipodi:r2="97.483749"
       sodipodi:arg1="1.0277313"
       sodipodi:arg2="1.2895307"
       inkscape:flatsided="false"
       inkscape:rounded="0.7"
       inkscape:randomized="0"
       d="m 537.06766,553.79076 c -15.60329,9.4182 -0.77038,13.48148 -18.27961,18.54033 -17.50924,5.05886 -7.12902,-6.28912 -25.35097,-5.93436 -18.22195,0.35476 -7.40791,11.29011 -25.10078,6.91659 -17.69286,-4.37351 -3.02935,-9.01104 -18.98739,-17.81479 -15.95805,-8.80374 -12.0605,6.07357 -25.19621,-6.56044 -13.13571,-12.63401 1.88203,-9.31847 -7.53617,-24.92176 -9.41821,-15.60329 -13.48148,-0.77038 -18.54034,-18.27962 -5.05885,-17.50923 6.28912,-7.12901 5.93437,-25.35096 -0.35476,-18.22195 -11.29011,-7.40791 -6.9166,-25.10078 4.37352,-17.69286 9.01105,-3.02935 17.8148,-18.98739 8.80374,-15.95805 -6.07357,-12.0605 6.56044,-25.19621 12.63401,-13.13571 9.31847,1.88203 24.92176,-7.53617 15.60329,-9.41821 0.77038,-13.48148 18.27961,-18.54034 17.50923,-5.05885 7.12902,6.28912 25.35097,5.93437 18.22195,-0.35476 7.40791,-11.29011 25.10077,-6.9166 17.69287,4.37352 3.02935,9.01105 18.9874,17.8148 15.95805,8.80374 12.06049,-6.07357 25.19621,6.56044 13.13571,12.63401 -1.88203,9.31847 7.53617,24.92176 9.4182,15.60329 13.48148,0.77038 18.54034,18.27961 5.05885,17.50923 -6.28913,7.12902 -5.93437,25.35097 0.35476,18.22195 11.29011,7.40791 6.9166,25.10077 -4.37352,17.69287 -9.01105,3.02935 -17.8148,18.9874 -8.80374,15.95805 6.07357,12.06049 -6.56044,25.19621 -12.63401,13.13571 -9.31847,-1.88203 -24.92176,7.53617 z"
       inkscape:transform-center-x="-2.8416226"
       inkscape:transform-center-y="-7.5535007"
       transform="matrix(1.1078113,0,0,1.1050327,-53.836042,-55.77836)" />
    <path
       style="fill:none;stroke:#000000;stroke-width:4.21741104;stroke-linecap:round;stroke-linejoin:miter;stroke-miterlimit:4;stroke-dasharray:none;stroke-opacity:1"
       d="m 375.22581,312.712 -10.66784,-22.97506 0,0"
       id="path5331"
       inkscape:connector-curvature="0" />
    <ellipse
       style="fill:#ffffff;fill-opacity:1;stroke:#000000;stroke-width:4.21741104;stroke-linecap:round;stroke-linejoin:round;stroke-miterlimit:4;stroke-dasharray:none;stroke-opacity:1"
       id="path5333"
       cx="215.47491"
       cy="378.98624"
       rx="32.059032"
       ry="33.741322" />
    <ellipse
       style="fill:#000000;fill-opacity:1;stroke:#000000;stroke-width:4.21741104;stroke-linecap:round;stroke-linejoin:round;stroke-miterlimit:4;stroke-dasharray:none;stroke-opacity:1"
       id="path5335"
       cx="199.47314"
       cy="374.27338"
       rx="7.1661367"
       ry="7.9146309" />
    <path
       style="fill:none;stroke:#000000;stroke-width:4.21741104;stroke-linecap:butt;stroke-linejoin:miter;stroke-miterlimit:4;stroke-dasharray:none;stroke-opacity:1"
       d="m 186.93844,431.71105 c 18.48734,-5.48569 53.23669,-4.5569 53.8726,-17.08402"
       id="path5337"
       inkscape:connector-curvature="0"
       sodipodi:nodetypes="cc" />
    <path
       style="fill:#916f6f;fill-opacity:1;stroke:#000000;stroke-width:4.21741104;stroke-linecap:round;stroke-linejoin:round;stroke-miterlimit:4;stroke-dasharray:none;stroke-opacity:1"
       d="m 247.33475,375.10888 -61.0734,17.72878 c 5.02677,11.71616 16.212,19.87561 29.21992,19.87561 17.70572,0 32.04159,-15.09141 32.04159,-33.72622 0,-1.30951 -0.0502,-2.60751 -0.18811,-3.87817 z"
       id="path5351"
       inkscape:connector-curvature="0" />
    <path
       style="opacity:0.08875738;fill:#000000;fill-opacity:1;stroke:#000000;stroke-width:4.21741104;stroke-linecap:round;stroke-linejoin:round;stroke-miterlimit:4;stroke-dasharray:none;stroke-opacity:1"
       d="m 230.34205,349.10437 c 2.58861,5.51342 4.07574,11.74721 4.07574,18.38668 0,22.01858 -16.09192,39.89305 -35.99192,40.06287 4.94008,3.27353 10.78656,5.15935 17.0554,5.15935 17.70572,0 32.04159,-15.09141 32.04159,-33.72622 0,-12.98244 -6.96763,-24.24025 -17.18081,-29.88268 z"
       id="path5412"
       inkscape:connector-curvature="0" />
    <path
       style="opacity:0.0739645;fill:#000000;fill-opacity:1;stroke:none"
       d="m 378.73034,344.36054 c -24.42372,58.8206 -78.21854,99.68973 -140.64439,99.68973 -24.09457,0 -46.88949,-6.07603 -67.21836,-16.93237 2.7435,21.68024 7.21732,42.36612 7.6185,58.58806 49.03076,-3.3321 87.31194,5.28813 131.95993,-3.22027 16.56544,-3.15682 42.60512,-3.02536 58.87877,-0.69253 36.10925,5.17628 84.23597,-2.58133 111.64393,3.9128 3.37646,-37.28587 30.68809,-25.89047 0,-132.48103 -29.26687,0 -65.30359,-4.19031 -102.23838,-8.86439 z"
       id="path5439"
       inkscape:connector-curvature="0" />
    <path
       transform="matrix(0.70362836,0,0,0.7771215,-104.80212,129.64117)"
       inkscape:transform-center-y="-7.574092"
       inkscape:transform-center-x="-2.5734427"
       d="m 537.06766,553.79076 c -25.34801,15.30015 -6.68629,19.15129 -36.16255,21.93816 -29.47625,2.78687 -11.86698,-4.49356 -39.63334,-14.77194 -27.76637,-10.27838 -19.14192,6.71308 -39.69893,-14.5948 -20.557,-21.30787 -3.88573,-12.07966 -13.16181,-40.19675 -9.27608,-28.11708 -17.18329,-10.78021 -13.3412,-40.13757 3.84208,-29.35736 7.02154,-10.56954 23.22082,-35.35259 16.19929,-24.78305 -2.28529,-20.15579 23.06272,-35.45594 25.34801,-15.30015 12.64146,-1.10033 42.11771,-3.8872 29.47626,-2.78687 14.33358,-14.35365 42.09994,-4.07526 27.76636,10.27838 8.7421,9.19744 29.29911,30.50532 20.557,21.30788 20.15896,2.25709 29.43505,30.37418 9.27608,28.11708 -1.74025,12.56936 -5.58233,41.92671 -3.84209,29.35736 10.80424,17.16819 -5.39504,41.95124 -16.19928,24.78305 -10.91215,6.47629 -36.26015,21.77644 z"
       inkscape:randomized="0"
       inkscape:rounded="0.7"
       inkscape:flatsided="false"
       sodipodi:arg2="1.4765303"
       sodipodi:arg1="1.0277313"
       sodipodi:r2="97.483749"
       sodipodi:r1="87.735374"
       sodipodi:cy="478.67798"
       sodipodi:cx="491.72931"
       sodipodi:sides="7"
       id="path3039"
       style="fill:#4d4d4d;stroke:#000000;stroke-opacity:0.45954692"
       sodipodi:type="star" />
    <ellipse
       id="path3041"
       style="fill:#ffffff"
       cx="241.19257"
       cy="501.63211"
       rx="49.730122"
       ry="54.924374" />
    <ellipse
       style="fill:#800000"
       id="path3043"
       cx="241.19257"
       cy="501.63211"
       rx="35.445938"
       ry="40.901131" />
    <ellipse
       id="path3045"
       style="fill:#800000"
       cx="241.19257"
       cy="501.63211"
       rx="23.277927"
       ry="23.372074" />
    <path
       style="opacity:0.14792899;fill:#000000;fill-opacity:1;stroke:#000000;stroke-width:0.73946244;stroke-opacity:0.45954692"
       d="m 271.00539,433.28142 c 2.75278,3.08509 5.25867,6.4401 7.46174,10.04169 -1.79567,-4.78365 -0.58434,-6.54224 -7.46174,-10.04169 z m 10.8791,16.30909 c 4.76233,9.86216 7.46174,21.11081 7.46174,33.06831 0,38.87972 -28.53549,70.3957 -63.73831,70.3957 -15.5842,0 -29.84015,-6.18949 -40.91416,-16.44759 -0.3808,6.05705 -2.77583,6.26393 7.14822,17.62489 14.4645,16.55881 8.3973,3.36994 27.9345,11.3575 19.53719,7.98755 7.13146,13.62711 27.87179,11.46137 20.74032,-2.16573 7.62212,-5.14616 25.4577,-17.03624 17.83558,-11.89007 14.09078,2.32707 25.48905,-16.93236 11.39828,-19.25945 1.09017,-9.80394 3.79357,-32.61818 2.70341,-22.81422 10.47725,-10.73315 3.95034,-32.58354 -6.52692,-21.8504 -6.25909,-7.02185 -20.72357,-23.58066 -1.5381,-1.7608 -2.74954,-3.31034 -3.73087,-4.7092 z"
       id="path5434"
       inkscape:connector-curvature="0" />
    <ellipse
       style="fill:#ffffff;stroke:#000000;stroke-width:0.77614617;stroke-opacity:0.45954692"
       id="path3016"
       cx="490.90726"
       cy="473.17648"
       rx="78.296432"
       ry="78.100052" />
    <ellipse
       id="path3027"
       style="fill:#800000;stroke:#000000;stroke-width:0.56546026;stroke-opacity:0.45954692"
       cx="490.90726"
       cy="473.17648"
       rx="55.807034"
       ry="58.159615" />
    <path
       style="opacity:0.12130175;fill:#000000;fill-opacity:1;stroke:none"
       d="m 555.80849,389.63403 c -2.74926,0.10951 -4.62635,2.22427 -8.82787,1.89928 12.57312,17.31619 20.00984,38.59008 20.00984,61.60557 0,58.07973 -47.22402,105.18531 -105.44979,105.18531 -7.46201,0 -14.75168,-0.77397 -21.77541,-2.2446 1.24536,0.48977 2.62918,1.14456 4.18891,2.00287 17.67851,9.72842 1.44805,14.85051 21.04841,19.6834 19.60037,4.83288 7.61266,-7.27415 27.79914,-7.66617 20.18649,-0.39202 8.67917,12.15134 28.0761,6.56113 19.39692,-5.5902 2.96667,-10.07022 20.25217,-20.47763 17.2855,-10.40742 13.62995,6.19311 27.62605,-8.32228 13.9961,-14.51539 -2.48287,-10.23338 7.27001,-27.86755 9.75288,-17.63416 14.88785,-1.40989 19.73289,-20.96109 4.84503,-19.5512 -7.29244,-7.59356 -7.68544,-27.72941 -0.39301,-20.13585 12.18189,-8.69194 6.57763,-28.04021 -5.60427,-19.34827 -10.09554,-2.95923 -20.52913,-20.20138 -10.43359,-17.24214 6.20868,-13.56122 -8.34321,-27.52222 -5.00221,-4.79909 -7.76758,-5.99274 -9.9703,-5.90502 z M 411.48145,545.71991 c 0.97625,1.40692 2.44493,3.07226 4.56972,5.11077 11.05363,10.60479 11.22815,3.65524 18.41737,3.97121 -8.08892,-2.13792 -15.78439,-5.19694 -22.98709,-9.08198 z"
       id="path5429"
       inkscape:connector-curvature="0" />
  </g>
</svg>
